<?xml version="1.0" standalone="no"?>
<!DOCTYPE svg PUBLIC "-//W3C//DTD SVG 20010904//EN"
 "http://www.w3.org/TR/2001/REC-SVG-20010904/DTD/svg10.dtd">
<svg version="1.0" xmlns="http://www.w3.org/2000/svg"
 width="700.000000pt" height="700.000000pt" viewBox="0 0 700.000000 700.000000"
 preserveAspectRatio="xMidYMid meet">
<metadata>
Created by potrace 1.14, written by Peter Selinger 2001-2017
</metadata>
<g transform="translate(0.000000,700.000000) scale(0.100000,-0.100000)"
fill="#000000" stroke="none">
<path d="M3310 6812 c-456 -57 -884 -358 -1098 -774 -27 -51 -56 -112 -65
-136 -13 -33 -22 -42 -35 -38 -54 16 -254 37 -357 38 -270 1 -494 -51 -740
-171 -417 -204 -709 -602 -794 -1081 -15 -82 -18 -143 -16 -280 2 -96 6 -193
9 -215 41 -252 122 -472 243 -654 67 -100 82 -119 183 -224 l74 -78 3 -138 2
-137 -65 -70 c-148 -156 -285 -364 -359 -547 -42 -101 -92 -288 -101 -372 -4
-33 -8 -63 -11 -67 -6 -11 -6 -259 1 -298 3 -19 8 -53 11 -75 15 -113 76 -303
136 -425 213 -436 505 -690 937 -814 260 -75 551 -90 803 -42 224 44 497 170
676 314 l42 33 98 -21 c107 -23 300 -54 403 -64 69 -8 365 -8 415 -1 17 2 55
6 85 9 30 4 66 8 80 11 215 38 219 38 292 56 l47 11 98 -71 c274 -197 585
-301 906 -304 84 -1 236 8 283 17 10 2 39 7 64 11 172 27 388 107 540 198 126
77 281 213 357 315 15 20 31 39 35 42 3 3 32 46 63 95 105 166 200 389 234
550 109 508 -57 1039 -453 1448 l-55 58 2 139 3 140 75 77 c228 235 363 515
424 878 14 83 13 389 -1 480 -71 467 -356 871 -765 1084 -328 171 -696 226
-1061 157 -37 -7 -71 -10 -76 -7 -5 3 -32 53 -59 111 -101 208 -227 368 -408
515 -322 262 -695 369 -1105 317z m323 -317 c261 -30 529 -205 691 -448 68
-103 148 -278 133 -293 -2 -2 -49 13 -103 35 -189 75 -416 130 -614 150 -86 9
-456 6 -520 -3 -29 -5 -189 -35 -265 -50 -67 -13 -252 -73 -327 -105 -54 -23
-55 -22 -34 57 34 126 125 279 229 380 227 224 493 315 810 277z m-94 -859 c3
-2 55 -7 116 -11 60 -4 116 -8 125 -10 8 -1 40 -6 71 -9 58 -7 66 -8 159 -27
342 -67 721 -246 995 -467 98 -79 274 -252 355 -347 90 -107 223 -302 217
-319 -18 -47 -274 -196 -412 -240 -164 -52 -235 -61 -480 -61 -219 1 -340 24
-510 97 -439 190 -747 607 -793 1073 -10 99 -9 336 2 353 4 7 29 4 78 -9 39
-11 74 -22 77 -23z m-489 -56 c0 -106 11 -311 20 -365 19 -119 21 -128 36
-188 71 -276 215 -520 436 -738 212 -210 460 -352 729 -418 118 -30 138 -33
274 -46 55 -6 284 -6 315 -1 14 2 54 7 90 11 238 24 513 134 718 288 31 23 56
36 61 31 23 -24 105 -292 139 -454 27 -127 32 -159 47 -310 6 -66 6 -314 0
-395 -5 -59 -18 -152 -41 -290 -28 -175 -119 -432 -220 -623 -145 -276 -398
-582 -639 -771 -44 -34 -89 -70 -100 -79 -48 -38 -209 -137 -306 -187 -218
-112 -451 -187 -714 -229 -136 -22 -174 -24 -415 -22 -278 3 -372 13 -575 61
-408 96 -775 302 -1096 616 -187 183 -319 353 -437 564 -156 279 -241 553
-282 910 -14 124 -5 512 15 640 52 336 171 649 349 920 334 507 827 877 1376
1033 193 54 220 59 220 42z m2601 -64 c257 -65 463 -200 612 -401 142 -191
209 -396 208 -635 -1 -63 -3 -124 -5 -135 -2 -11 -7 -45 -11 -75 -18 -133 -86
-316 -160 -430 -45 -71 -115 -157 -115 -143 0 8 -12 83 -25 153 -47 263 -172
577 -322 809 -153 236 -312 418 -528 600 -81 69 -241 188 -284 210 -32 18 -18
28 75 51 167 42 380 41 555 -4z m-3816 19 c104 -20 175 -38 175 -44 0 -3 -37
-31 -82 -61 -205 -134 -426 -337 -583 -535 -268 -337 -444 -726 -506 -1117 -6
-43 -15 -78 -19 -78 -18 0 -117 143 -166 240 -80 160 -115 308 -120 510 -5
203 23 334 106 500 169 335 464 538 865 594 39 6 291 -1 330 -9z m-924 -3190
c137 -446 429 -892 791 -1207 149 -130 374 -277 556 -363 45 -22 81 -44 79
-50 -5 -17 -178 -99 -268 -128 -86 -27 -104 -31 -199 -47 -59 -9 -332 -6 -390
5 -405 76 -679 274 -850 614 -85 168 -116 299 -119 499 -4 310 85 552 286 771
l67 74 9 -34 c4 -19 22 -79 38 -134z m5381 -9 c132 -188 198 -403 199 -649 1
-110 -2 -143 -22 -242 -66 -322 -292 -623 -574 -767 -122 -62 -290 -113 -415
-126 -125 -13 -350 -7 -430 12 -132 31 -275 87 -369 144 l-33 20 88 43 c571
278 1004 738 1287 1369 23 52 81 225 102 304 l19 69 49 -53 c27 -29 71 -85 99
-124z"/>
<path d="M2540 3287 c-3 -3 -19 -7 -35 -10 -92 -14 -210 -112 -257 -214 -110
-234 61 -521 320 -538 231 -14 416 164 408 393 -7 204 -153 356 -353 369 -43
3 -80 3 -83 0z"/>
<path d="M4304 3275 c-105 -32 -201 -113 -250 -212 -24 -51 -28 -69 -28 -153
1 -116 24 -176 103 -262 184 -201 507 -149 624 100 136 292 -142 619 -449 527z"/>
</g>
</svg>
